<svg width="83" height="93" viewBox="0 0 83 93" fill="none" xmlns="http://www.w3.org/2000/svg">
<g clip-path="url(#clip0_4_5)">
<path d="M20.5159 71.2999C22.7782 71.2999 24.6191 69.2136 24.6191 66.6499V61.9999H28.7223C30.9845 61.9999 32.8255 59.9136 32.8255 57.3499C32.8255 54.7863 30.9845 52.6999 28.7223 52.6999H24.6191V48.0499C24.6191 45.4863 22.7782 43.3999 20.5159 43.3999C18.2537 43.3999 16.4128 45.4863 16.4128 48.0499V52.6999H12.3096C10.0474 52.6999 8.20638 54.7863 8.20638 57.3499C8.20638 59.9136 10.0474 61.9999 12.3096 61.9999H16.4128V66.6499C16.4128 69.2136 18.2537 71.2999 20.5159 71.2999ZM12.3096 58.9001C11.5546 58.9001 10.9419 58.2042 10.9419 57.3501C10.9419 56.496 11.5546 55.8 12.3096 55.8H17.7804C18.5368 55.8 19.1481 55.1056 19.1481 54.2501V48.0501C19.1481 47.196 19.7609 46.5002 20.5158 46.5002C21.2707 46.5002 21.8835 47.196 21.8835 48.0501V54.2501C21.8835 55.1056 22.4948 55.8 23.2511 55.8H28.7223C29.4773 55.8 30.09 56.4959 30.09 57.3499C30.09 58.204 29.4773 58.8999 28.7223 58.8999H23.2515C22.4951 58.8999 21.8838 59.5943 21.8838 60.4498V66.6498C21.8838 67.5038 21.271 68.1997 20.5161 68.1997C19.7612 68.1997 19.1484 67.5038 19.1484 66.6498V60.45C19.1484 59.5945 18.5371 58.9001 17.7808 58.9001H12.3096Z" fill="white"/>
<path d="M61.5478 34.0999H51.9738V20.1499C51.9738 15.8767 48.906 12.3999 45.1351 12.3999C41.3643 12.3999 38.2964 15.8765 38.2964 20.1499C38.2964 22.7136 36.4554 24.7999 34.1932 24.7999C31.931 24.7999 30.09 22.7136 30.09 20.1499V1.54994C30.09 0.694412 29.4787 0 28.7223 0C27.966 0 27.3547 0.694412 27.3547 1.54994V20.1499C27.3547 24.4232 30.4224 27.9 34.1934 27.9C37.9641 27.9 41.0321 24.4234 41.0321 20.1499C41.0321 17.5863 42.873 15.4999 45.1352 15.4999C47.3974 15.4999 49.2384 17.5863 49.2384 20.1499V35.6499C49.2384 36.5054 49.8497 37.1998 50.6061 37.1998H61.5478C71.1862 37.1998 79.3283 46.427 79.3283 57.3498V82.232C79.3283 87.1688 75.2852 89.8998 72.4896 89.8998C68.5191 89.8998 66.1638 86.9812 63.1822 83.2859C58.8739 77.9462 53.511 71.2998 41.0319 71.2998C28.5718 71.2998 23.2282 77.9322 18.9362 83.2612C15.9491 86.9703 13.5897 89.8998 9.57406 89.8998C6.71817 89.8998 2.73535 86.9517 2.73535 82.1497V57.3499C2.73551 46.4272 10.8776 37.2 20.5159 37.2H45.1351C45.8914 37.2 46.5028 36.5056 46.5028 35.6501C46.5028 34.7945 45.8914 34.1001 45.1351 34.1001H20.5159C9.39486 34.1001 0 44.747 0 57.3501V82.1501C0 88.5438 5.04548 93 9.57406 93C14.7947 93 17.7886 89.2847 20.9562 85.3524C25.0924 80.2187 29.7783 74.4 41.0319 74.4C52.3048 74.4 57.0124 80.2327 61.1635 85.3787C64.3257 89.2971 67.3143 93 72.4897 93C77.0183 93 82.0638 88.5778 82.0638 82.2322V57.3499C82.0638 44.747 72.6689 34.0999 61.5478 34.0999Z" fill="white"/>
<path d="M69.7542 62C72.0164 62 73.8574 59.9136 73.8574 57.35C73.8574 54.7863 72.0164 52.7 69.7542 52.7C67.492 52.7 65.651 54.7863 65.651 57.35C65.651 59.9136 67.492 62 69.7542 62ZM69.7542 55.8C70.5091 55.8 71.1219 56.4959 71.1219 57.35C71.1219 58.204 70.5091 58.8999 69.7542 58.8999C68.9993 58.8999 68.3865 58.204 68.3865 57.35C68.3865 56.4959 68.9993 55.8 69.7542 55.8Z" fill="white"/>
<path d="M61.5478 43.3999C59.2856 43.3999 57.4446 45.4863 57.4446 48.0499C57.4446 50.6136 59.2856 52.6999 61.5478 52.6999C63.81 52.6999 65.651 50.6136 65.651 48.0499C65.651 45.4863 63.81 43.3999 61.5478 43.3999ZM61.5478 49.6001C60.7929 49.6001 60.1802 48.9042 60.1802 48.0501C60.1802 47.196 60.7929 46.5002 61.5478 46.5002C62.3028 46.5002 62.9155 47.196 62.9155 48.0501C62.9155 48.904 62.3028 49.6001 61.5478 49.6001Z" fill="white"/>
<path d="M53.3415 52.7C51.0793 52.7 49.2383 54.7863 49.2383 57.35C49.2383 59.9136 51.0793 62 53.3415 62C55.6037 62 57.4447 59.9136 57.4447 57.35C57.4447 54.7863 55.6037 52.7 53.3415 52.7ZM53.3415 58.9001C52.5865 58.9001 51.9738 58.2042 51.9738 57.3501C51.9738 56.4961 52.5865 55.8002 53.3415 55.8002C54.0964 55.8002 54.7091 56.4961 54.7091 57.3501C54.7091 58.2042 54.0964 58.9001 53.3415 58.9001Z" fill="white"/>
<path d="M61.5478 71.2999C63.81 71.2999 65.651 69.2136 65.651 66.6499C65.651 64.0863 63.81 61.9999 61.5478 61.9999C59.2856 61.9999 57.4446 64.0863 57.4446 66.6499C57.4446 69.2136 59.2856 71.2999 61.5478 71.2999ZM61.5478 65.1C62.3028 65.1 62.9155 65.7959 62.9155 66.6499C62.9155 67.504 62.3028 68.1999 61.5478 68.1999C60.7929 68.1999 60.1802 67.504 60.1802 66.6499C60.1802 65.7959 60.7929 65.1 61.5478 65.1Z" fill="white"/>
</g>
<defs>
<clipPath id="clip0_4_5">
<rect width="82.0638" height="93" fill="white"/>
</clipPath>
</defs>
</svg>
