<svg width="67" height="64" viewBox="0 0 67 64" fill="none" xmlns="http://www.w3.org/2000/svg">
<path d="M28.7022 62.4375C31.8725 62.4375 34.4426 59.9357 34.4426 56.8496C34.4426 53.7635 31.8725 51.2617 28.7022 51.2617C25.5318 51.2617 22.9617 53.7635 22.9617 56.8496C22.9617 59.9357 25.5318 62.4375 28.7022 62.4375Z" stroke="white" stroke-width="2" stroke-miterlimit="10"/>
<path d="M54.5192 62.4375C57.6895 62.4375 60.2596 59.9357 60.2596 56.8496C60.2596 53.7635 57.6895 51.2617 54.5192 51.2617C51.3488 51.2617 48.7787 53.7635 48.7787 56.8496C48.7787 59.9357 51.3488 62.4375 54.5192 62.4375Z" stroke="white" stroke-width="2" stroke-miterlimit="10"/>
<path d="M0 1.00001H7.99453C9.82779 0.996879 11.6144 1.56239 13.0952 2.61451C14.5759 3.66663 15.6738 5.15063 16.2295 6.8512L25.8169 37.3066H24.4044C22.4993 37.3066 20.6723 38.0433 19.3252 39.3546C17.9781 40.6659 17.2213 42.4444 17.2213 44.2988C17.2293 46.1482 17.9895 47.9191 19.3358 49.2241C20.682 50.5291 22.5045 51.2617 24.4044 51.2617H54.459" stroke="white" stroke-width="2" stroke-miterlimit="10"/>
<path d="M20.1066 12.1758H66V17.7637L60.2596 37.3066H25.8169" stroke="white" stroke-width="2" stroke-miterlimit="10"/>
</svg>
