<svg width="18" height="18" viewBox="0 0 18 18" fill="none" xmlns="http://www.w3.org/2000/svg">
<path d="M7.39291 17.4375C8.20951 17.4375 8.87151 16.7682 8.87151 15.9425C8.87151 15.1168 8.20951 14.4474 7.39291 14.4474C6.5763 14.4474 5.91431 15.1168 5.91431 15.9425C5.91431 16.7682 6.5763 17.4375 7.39291 17.4375Z" stroke="white" stroke-width="0.5" stroke-miterlimit="10"/>
<path d="M14.0428 17.4375C14.8594 17.4375 15.5214 16.7682 15.5214 15.9425C15.5214 15.1168 14.8594 14.4474 14.0428 14.4474C13.2262 14.4474 12.5642 15.1168 12.5642 15.9425C12.5642 16.7682 13.2262 17.4375 14.0428 17.4375Z" stroke="white" stroke-width="0.5" stroke-miterlimit="10"/>
<path d="M0 1H2.0592C2.53141 0.999165 2.99159 1.15047 3.373 1.43196C3.75441 1.71345 4.03719 2.11049 4.18033 2.56548L6.64983 10.7138H6.28599C5.79529 10.7138 5.32468 10.9109 4.97771 11.2617C4.63073 11.6125 4.4358 12.0884 4.4358 12.5845C4.43785 13.0793 4.63368 13.5531 4.98044 13.9023C5.32719 14.2514 5.79662 14.4474 6.28599 14.4474H14.0273" stroke="white" stroke-width="0.5" stroke-miterlimit="10"/>
<path d="M5.17896 3.99006H17V5.48509L15.5214 10.7138H6.64981" stroke="white" stroke-width="0.5" stroke-miterlimit="10"/>
</svg>
